<mxfile host="app.diagrams.net" modified="2023-08-15T08:09:57.293Z" agent="Mozilla/5.0 (Macintosh; Intel Mac OS X 10_15_7) AppleWebKit/537.36 (KHTML, like Gecko) Chrome/115.0.0.0 Safari/537.36 Edg/115.0.1901.188" version="21.6.8" etag="4QZfHXHYDdgg4yG7PrzF" type="github">
  <diagram name="第 1 页" id="SXq-16B3n1F-OW1p_wjd">
    <mxGraphModel>
      <root>
        <mxCell id="0" />
        <mxCell id="1" parent="0" />
      </root>
    </mxGraphModel>
  </diagram>
</mxfile>
